<svg width="24" height="24" viewBox="0 0 24 24" fill="none" xmlns="http://www.w3.org/2000/svg">
	<path d="M16.969 16.9281C17.2235 17.1638 17.5232 17.3453 17.85 17.4617C18.1768 17.5781 18.5238 17.6268 18.87 17.6051C19.4186 17.619 19.9566 17.4521 20.401 17.1301C20.763 16.8951 21.037 16.5461 21.18 16.1401H23.765C23.4896 17.2978 22.8173 18.3225 21.865 19.0361C20.9508 19.6427 19.8706 19.9502 18.774 19.9161C17.9913 19.9263 17.2146 19.779 16.49 19.4831C15.8342 19.2099 15.2462 18.7965 14.767 18.2721C14.2898 17.7227 13.9231 17.0864 13.687 16.3981C13.4223 15.6284 13.2927 14.8188 13.304 14.0051C13.299 13.2051 13.433 12.4101 13.7 11.6561C14.0601 10.5958 14.746 9.67644 15.6597 9.02922C16.5735 8.38199 17.6683 8.03999 18.788 8.05206C19.615 8.03491 20.4327 8.22867 21.164 8.61506C21.825 8.97706 22.395 9.48506 22.832 10.1001C23.2784 10.745 23.5984 11.4688 23.775 12.2331C23.969 13.0541 24.038 13.8991 23.98 14.7411H16.281C16.218 15.5311 16.465 16.3151 16.969 16.9281ZM6.947 4.08506C7.59529 4.07332 8.24263 4.1398 8.875 4.28306C9.40769 4.39912 9.91338 4.61565 10.365 4.92106C10.783 5.22406 11.113 5.63206 11.323 6.10306C11.564 6.68206 11.68 7.30606 11.664 7.93306C11.6919 8.62227 11.5159 9.3044 11.158 9.89406C10.7822 10.4507 10.2628 10.8954 9.655 11.1811C10.4802 11.4034 11.199 11.9129 11.682 12.6181C12.146 13.3651 12.379 14.2331 12.352 15.1121C12.3679 15.8128 12.2232 16.5079 11.929 17.1441C11.6574 17.6997 11.2591 18.1837 10.766 18.5571C10.2593 18.927 9.68875 19.2006 9.083 19.3641C8.45517 19.538 7.80648 19.6252 7.155 19.6231H0V4.08506H6.947ZM6.712 16.9851C7.02 16.9891 7.328 16.9561 7.628 16.8861C7.90234 16.8258 8.16244 16.713 8.394 16.5541C8.622 16.3961 8.805 16.1831 8.928 15.9351C9.07 15.6181 9.136 15.2721 9.119 14.9261C9.14994 14.6102 9.10817 14.2914 8.99689 13.9941C8.88561 13.6968 8.70777 13.429 8.477 13.2111C7.98742 12.851 7.38781 12.6724 6.781 12.7061H3.241V16.9851H6.712ZM20.347 11.0181C20.1316 10.8026 19.8725 10.6358 19.5872 10.5291C19.3018 10.4223 18.9969 10.378 18.693 10.3991C18.2895 10.3834 17.8888 10.4727 17.53 10.6581C17.2457 10.8143 16.995 11.025 16.792 11.2781C16.6112 11.5147 16.4768 11.7834 16.396 12.0701C16.322 12.3091 16.276 12.5551 16.259 12.8041H21.028C20.9862 12.1543 20.7496 11.5323 20.349 11.0191L20.347 11.0181ZM6.534 10.3701C7.04366 10.3909 7.54533 10.2383 7.957 9.93706C8.356 9.58206 8.564 9.05706 8.517 8.52406C8.52997 8.21709 8.46892 7.91149 8.339 7.63306C8.22817 7.41185 8.05643 7.22692 7.844 7.10006C7.62857 6.96041 7.38644 6.8671 7.133 6.82606C6.85803 6.7723 6.57813 6.74783 6.298 6.75306H3.241V10.3841H6.534V10.3701ZM21.62 5.12306H15.644V6.65006H21.62V5.12306Z" fill="currentColor"/>
</svg>
