<svg width="24" height="24" viewBox="0 0 24 24" fill="none" xmlns="http://www.w3.org/2000/svg">
	<path d="M14.1875 9.75104C14.4375 9.58438 14.6042 9.56354 14.6875 9.68854C14.7708 9.81354 14.7083 9.98021 14.5 10.1885C12.5625 12.1886 11.125 13.3136 10.3125 14.2511C9.93748 14.6677 10.0416 15.0844 10.625 15.5011L14.5 18.1261C16.0625 19.1886 16.5625 18.3136 16.75 17.2511C17.4584 13.4594 17.9584 10.3135 18.25 7.81353C18.375 6.87602 18.0625 6.37602 16.875 6.75102C15.75 7.08436 11.7083 8.77187 4.74994 11.8136C3.43743 12.3136 3.68743 12.8761 4.43744 13.1261C5.18744 13.3761 5.74995 13.5636 6.49995 13.7511C7.24996 13.9386 7.74996 14.0011 8.62497 13.4386M12.0625 0.000976562C15.2397 0.0175245 18.2806 1.29338 20.5184 3.54877C22.7562 5.80415 24.0083 8.85495 24 12.0321C23.9918 15.2093 22.7238 18.2536 20.4743 20.4973C18.2247 22.741 15.1772 24.001 12 24.001C8.82278 24.001 5.77525 22.741 3.52571 20.4973C1.27616 18.2536 0.0082232 15.2093 -5.08045e-05 12.0321C-0.0083248 8.85495 1.24374 5.80415 3.48157 3.54877C5.7194 1.29338 8.76033 0.0175245 11.9375 0.000976562" fill="white"/>
</svg>
